# Created by FreeCAD <http://www.freecadweb.org>
v 0.500000 -28.000000 2.150000
v 6.000000 -28.000000 2.150000
v 0.500000 -32.000000 2.150000
v 6.000000 -32.000000 2.150000
v 0.500000 -28.000000 1.350000
v 0.500000 -32.000000 1.350000
v -1.000000 -28.000000 4.000000
v -1.000000 -28.000000 2.500000
v 0.000000 -28.000000 1.350000
v 6.000000 -28.000000 4.875000
v 6.000000 -32.000000 4.875000
v -1.000000 -32.000000 4.000000
v 0.000000 -32.000000 1.350000
v -1.000000 -32.000000 2.500000
v 6.000000 32.000000 -8.000000
v 6.000000 28.000000 -4.875000
v 6.000000 32.000000 -4.875000
v 6.000000 32.000000 -2.150000
v 6.000000 28.000000 2.150000
v 6.000000 32.000000 2.150000
v 6.000000 28.000000 -2.150000
v 6.000000 32.000000 4.875000
v 6.000000 28.000000 4.875000
v 6.000000 32.000000 8.000000
v 6.000000 2.000000 -4.875000
v 6.000000 2.000000 -2.150000
v 6.000000 2.000000 2.150000
v 6.000000 2.000000 4.875000
v 6.000000 -2.000000 -2.150000
v 6.000000 -2.000000 2.150000
v 6.000000 -2.000000 -4.875000
v 6.000000 -32.000000 -8.000000
v 6.000000 -28.000000 -4.875000
v 6.000000 -28.000000 -2.150000
v 6.000000 -32.000000 -4.875000
v 6.000000 -2.000000 4.875000
v 6.000000 -32.000000 -2.150000
v 6.000000 -32.000000 8.000000
v 7.000000 -32.000000 8.000000
v 7.000000 32.000000 8.000000
v -1.000000 32.000000 4.000000
v -1.000000 28.000000 4.000000
v 0.500000 28.000000 2.150000
v -1.000000 28.000000 2.500000
v 0.000000 28.000000 1.350000
v 0.500000 28.000000 1.350000
v -1.000000 32.000000 2.500000
v 0.000000 32.000000 1.350000
v 0.500000 32.000000 1.350000
v 0.500000 32.000000 2.150000
v 0.500000 28.000000 -2.150000
v 0.000000 28.000000 -1.350000
v -1.000000 28.000000 -2.500000
v 0.500000 28.000000 -1.350000
v -1.000000 28.000000 -4.000000
v -1.000000 32.000000 -4.000000
v 0.500000 32.000000 -2.150000
v -1.000000 32.000000 -2.500000
v 0.000000 32.000000 -1.350000
v 0.500000 32.000000 -1.350000
v 7.000000 -32.000000 -8.000000
v 7.000000 32.000000 -8.000000
v 0.500000 -28.000000 -2.150000
v 0.500000 -32.000000 -2.150000
v 0.500000 -28.000000 -1.350000
v 0.500000 -32.000000 -1.350000
v 0.000000 -28.000000 -1.350000
v -1.000000 -28.000000 -2.500000
v -1.000000 -28.000000 -4.000000
v -1.000000 -32.000000 -4.000000
v 0.000000 -32.000000 -1.350000
v -1.000000 -32.000000 -2.500000
v -1.000000 2.000000 4.000000
v 0.500000 2.000000 2.150000
v -1.000000 2.000000 2.500000
v -0.000000 2.000000 1.350000
v 0.500000 2.000000 1.350000
v -1.000000 -2.000000 4.000000
v 0.500000 -2.000000 2.150000
v -1.000000 -2.000000 2.500000
v -0.000000 -2.000000 1.350000
v 0.500000 -2.000000 1.350000
v 0.500000 -2.000000 -2.150000
v -0.000000 -2.000000 -1.350000
v -1.000000 -2.000000 -2.500000
v 0.500000 -2.000000 -1.350000
v -1.000000 -2.000000 -4.000000
v -1.000000 2.000000 -4.000000
v -0.000000 2.000000 -1.350000
v 0.500000 2.000000 -2.150000
v -1.000000 2.000000 -2.500000
v 0.500000 2.000000 -1.350000
vn 0.000000 0.000000 -1.000000
vn 0.000000 0.000000 -1.000000
vn 1.000000 0.000000 -0.000000
vn 1.000000 0.000000 0.000000
vn 0.000000 1.000000 0.000000
vn 0.000000 1.000000 0.000000
vn 0.000000 1.000000 0.000000
vn -0.000000 1.000000 0.000000
vn 0.000000 1.000000 0.000000
vn -0.124035 0.000000 0.992278
vn -0.124035 0.000000 0.992278
vn 0.000000 0.000000 -1.000000
vn 0.000000 0.000000 -1.000000
vn -0.754606 -0.000000 -0.656179
vn -0.754606 0.000000 -0.656179
vn -1.000000 -0.000000 -0.000000
vn -1.000000 0.000000 0.000000
vn -1.000000 0.000000 0.000000
vn -1.000000 0.000000 0.000000
vn -1.000000 0.000000 0.000000
vn -1.000000 0.000000 0.000000
vn -1.000000 0.000000 0.000000
vn -1.000000 0.000000 0.000000
vn -1.000000 0.000000 0.000000
vn -1.000000 0.000000 0.000000
vn -1.000000 0.000000 0.000000
vn -1.000000 0.000000 0.000000
vn -1.000000 0.000000 0.000000
vn -1.000000 0.000000 0.000000
vn -1.000000 0.000000 0.000000
vn -1.000000 0.000000 0.000000
vn -1.000000 -0.000000 0.000000
vn -1.000000 0.000000 0.000000
vn -1.000000 0.000000 0.000000
vn -1.000000 0.000000 0.000000
vn -1.000000 0.000000 0.000000
vn -1.000000 0.000000 0.000000
vn -1.000000 0.000000 0.000000
vn -1.000000 0.000000 0.000000
vn -1.000000 0.000000 0.000000
vn -1.000000 0.000000 0.000000
vn -1.000000 0.000000 0.000000
vn -1.000000 0.000000 0.000000
vn -1.000000 0.000000 0.000000
vn -1.000000 0.000000 0.000000
vn -1.000000 0.000000 0.000000
vn -1.000000 -0.000000 0.000000
vn 0.000000 0.000000 1.000000
vn 0.000000 0.000000 1.000000
vn -0.124035 0.000000 0.992278
vn -0.124035 0.000000 0.992278
vn 0.000000 -1.000000 0.000000
vn 0.000000 -1.000000 0.000000
vn 0.000000 -1.000000 0.000000
vn 0.000000 -1.000000 0.000000
vn 0.000000 -1.000000 0.000000
vn -1.000000 -0.000000 -0.000000
vn -1.000000 0.000000 0.000000
vn 0.000000 0.000000 -1.000000
vn 0.000000 0.000000 -1.000000
vn -0.754606 -0.000000 -0.656179
vn -0.754606 0.000000 -0.656179
vn 0.000000 0.000000 -1.000000
vn 0.000000 0.000000 -1.000000
vn 1.000000 0.000000 -0.000000
vn 1.000000 0.000000 0.000000
vn -0.000000 -1.000000 0.000000
vn 0.000000 -1.000000 0.000000
vn 0.000000 -1.000000 0.000000
vn 0.000000 -1.000000 0.000000
vn 0.000000 -1.000000 0.000000
vn -0.124035 -0.000000 -0.992278
vn -0.124035 0.000000 -0.992278
vn 0.000000 0.000000 1.000000
vn 0.000000 0.000000 1.000000
vn -1.000000 -0.000000 -0.000000
vn -1.000000 0.000000 0.000000
vn -0.754606 0.000000 0.656179
vn -0.754606 0.000000 0.656179
vn 0.000000 0.000000 1.000000
vn 0.000000 0.000000 1.000000
vn 1.000000 0.000000 -0.000000
vn 1.000000 0.000000 0.000000
vn 0.000000 0.000000 -1.000000
vn 0.000000 0.000000 -1.000000
vn 0.000000 0.000000 1.000000
vn 0.000000 0.000000 1.000000
vn 1.000000 0.000000 -0.000000
vn 1.000000 0.000000 0.000000
vn 0.000000 1.000000 0.000000
vn 0.000000 1.000000 0.000000
vn 0.000000 1.000000 0.000000
vn 0.000000 1.000000 0.000000
vn 0.000000 1.000000 0.000000
vn -0.124035 0.000000 -0.992278
vn -0.124035 -0.000000 -0.992278
vn 0.000000 0.000000 1.000000
vn 0.000000 0.000000 1.000000
vn -1.000000 -0.000000 -0.000000
vn -1.000000 0.000000 0.000000
vn -0.754606 0.000000 0.656179
vn -0.754606 0.000000 0.656179
vn 0.000000 1.000000 0.000000
vn 0.000000 1.000000 0.000000
vn 0.000000 1.000000 0.000000
vn -0.000000 1.000000 0.000000
vn 0.000000 1.000000 0.000000
vn -0.124035 0.000000 0.992278
vn -0.124035 0.000000 0.992278
vn 0.000000 -1.000000 0.000000
vn 0.000000 -1.000000 0.000000
vn 0.000000 -1.000000 0.000000
vn 0.000000 -1.000000 0.000000
vn 0.000000 -1.000000 0.000000
vn 0.000000 0.000000 -1.000000
vn 0.000000 0.000000 -1.000000
vn -0.754606 -0.000000 -0.656179
vn -0.754606 0.000000 -0.656179
vn -1.000000 -0.000000 -0.000000
vn -1.000000 0.000000 0.000000
vn 0.000000 0.000000 -1.000000
vn 0.000000 0.000000 -1.000000
vn 1.000000 0.000000 -0.000000
vn 1.000000 0.000000 0.000000
vn -0.000000 -1.000000 0.000000
vn 0.000000 -1.000000 0.000000
vn 0.000000 -1.000000 0.000000
vn 0.000000 -1.000000 0.000000
vn 0.000000 -1.000000 0.000000
vn -0.124035 -0.000000 -0.992278
vn -0.124035 0.000000 -0.992278
vn 0.000000 1.000000 0.000000
vn 0.000000 1.000000 0.000000
vn 0.000000 1.000000 0.000000
vn 0.000000 1.000000 0.000000
vn 0.000000 1.000000 0.000000
vn 0.000000 0.000000 1.000000
vn 0.000000 0.000000 1.000000
vn -1.000000 -0.000000 -0.000000
vn -1.000000 0.000000 0.000000
vn -0.754606 0.000000 0.656179
vn -0.754606 0.000000 0.656179
vn 0.000000 0.000000 1.000000
vn 0.000000 0.000000 1.000000
vn 1.000000 0.000000 -0.000000
vn 1.000000 0.000000 0.000000
vn 0.000000 -1.000000 0.000000
vn 0.000000 -1.000000 0.000000
vn 0.000000 -1.000000 0.000000
vn 0.000000 -1.000000 0.000000
vn 0.000000 -1.000000 0.000000
vn 0.000000 -1.000000 0.000000
vn -0.000000 -1.000000 0.000000
vn 0.000000 -1.000000 0.000000
vn 0.000000 -1.000000 0.000000
vn 0.000000 -1.000000 0.000000
vn 0.000000 -1.000000 0.000000
vn 0.000000 -1.000000 0.000000
vn 0.000000 -1.000000 0.000000
vn 0.000000 -1.000000 0.000000
vn 0.000000 -1.000000 0.000000
vn 0.000000 -1.000000 0.000000
vn 0.000000 1.000000 0.000000
vn 0.000000 1.000000 0.000000
vn 0.000000 1.000000 0.000000
vn 0.000000 1.000000 0.000000
vn 0.000000 1.000000 0.000000
vn 0.000000 1.000000 0.000000
vn 0.000000 1.000000 0.000000
vn 0.000000 1.000000 0.000000
vn 0.000000 1.000000 0.000000
vn 0.000000 1.000000 0.000000
vn 0.000000 1.000000 0.000000
vn 0.000000 1.000000 0.000000
vn 0.000000 1.000000 0.000000
vn 0.000000 1.000000 0.000000
vn 0.000000 1.000000 0.000000
vn 0.000000 1.000000 0.000000
vn 1.000000 0.000000 0.000000
vn 1.000000 -0.000000 0.000000
f 1//1 2//1 3//1
f 3//2 2//2 4//2
f 5//3 1//3 6//3
f 6//4 1//4 3//4
f 7//5 1//5 8//5
f 1//6 9//6 8//6
f 1//7 5//7 9//7
f 7//8 10//8 1//8
f 10//9 2//9 1//9
f 11//10 7//10 12//10
f 10//11 7//11 11//11
f 9//12 5//12 13//12
f 13//13 5//13 6//13
f 8//14 9//14 14//14
f 14//15 9//15 13//15
f 7//16 8//16 12//16
f 12//17 8//17 14//17
f 15//18 16//18 17//18
f 18//19 19//19 20//19
f 21//20 19//20 18//20
f 22//21 23//21 24//21
f 15//22 25//22 16//22
f 16//23 26//23 21//23
f 25//24 26//24 16//24
f 26//25 27//25 21//25
f 21//26 27//26 19//26
f 19//27 28//27 23//27
f 23//28 28//28 24//28
f 27//29 28//29 19//29
f 29//30 30//30 26//30
f 26//31 30//31 27//31
f 31//32 32//32 33//32
f 31//33 34//33 29//33
f 33//34 34//34 31//34
f 32//35 35//35 33//35
f 29//36 2//36 30//36
f 34//37 2//37 29//37
f 30//38 10//38 36//38
f 2//39 10//39 30//39
f 37//40 4//40 34//40
f 34//41 4//41 2//41
f 11//42 38//42 10//42
f 10//43 38//43 36//43
f 38//44 24//44 36//44
f 36//45 24//45 28//45
f 15//46 32//46 25//46
f 25//47 32//47 31//47
f 24//48 38//48 39//48
f 40//49 24//49 39//49
f 23//50 41//50 42//50
f 22//51 41//51 23//51
f 43//52 42//52 44//52
f 45//53 43//53 44//53
f 46//54 43//54 45//54
f 23//55 42//55 43//55
f 19//56 23//56 43//56
f 41//57 47//57 42//57
f 42//58 47//58 44//58
f 48//59 49//59 45//59
f 45//60 49//60 46//60
f 47//61 48//61 44//61
f 44//62 48//62 45//62
f 50//63 20//63 43//63
f 43//64 20//64 19//64
f 49//65 50//65 46//65
f 46//66 50//66 43//66
f 51//67 52//67 53//67
f 51//68 54//68 52//68
f 55//69 51//69 53//69
f 16//70 21//70 51//70
f 16//71 51//71 55//71
f 56//72 16//72 55//72
f 56//73 17//73 16//73
f 18//74 57//74 21//74
f 21//75 57//75 51//75
f 58//76 56//76 53//76
f 53//77 56//77 55//77
f 59//78 58//78 52//78
f 52//79 58//79 53//79
f 60//80 59//80 54//80
f 54//81 59//81 52//81
f 57//82 60//82 51//82
f 51//83 60//83 54//83
f 32//84 15//84 61//84
f 15//85 62//85 61//85
f 34//86 63//86 37//86
f 37//87 63//87 64//87
f 63//88 65//88 64//88
f 64//89 65//89 66//89
f 67//90 63//90 68//90
f 65//91 63//91 67//91
f 63//92 69//92 68//92
f 34//93 33//93 63//93
f 63//94 33//94 69//94
f 70//95 33//95 35//95
f 69//96 33//96 70//96
f 65//97 67//97 66//97
f 66//98 67//98 71//98
f 68//99 69//99 72//99
f 72//100 69//100 70//100
f 67//101 68//101 71//101
f 71//102 68//102 72//102
f 73//103 74//103 75//103
f 74//104 76//104 75//104
f 74//105 77//105 76//105
f 73//106 28//106 74//106
f 28//107 27//107 74//107
f 36//108 73//108 78//108
f 28//109 73//109 36//109
f 79//110 78//110 80//110
f 81//111 79//111 80//111
f 82//112 79//112 81//112
f 36//113 78//113 79//113
f 30//114 36//114 79//114
f 76//115 77//115 81//115
f 81//116 77//116 82//116
f 75//117 76//117 80//117
f 80//118 76//118 81//118
f 73//119 75//119 78//119
f 78//120 75//120 80//120
f 74//121 27//121 79//121
f 79//122 27//122 30//122
f 77//123 74//123 82//123
f 82//124 74//124 79//124
f 83//125 84//125 85//125
f 83//126 86//126 84//126
f 87//127 83//127 85//127
f 31//128 29//128 83//128
f 31//129 83//129 87//129
f 88//130 31//130 87//130
f 88//131 25//131 31//131
f 89//132 90//132 91//132
f 92//133 90//133 89//133
f 90//134 88//134 91//134
f 26//135 25//135 90//135
f 90//136 25//136 88//136
f 26//137 90//137 29//137
f 29//138 90//138 83//138
f 91//139 88//139 85//139
f 85//140 88//140 87//140
f 89//141 91//141 84//141
f 84//142 91//142 85//142
f 92//143 89//143 86//143
f 86//144 89//144 84//144
f 90//145 92//145 83//145
f 83//146 92//146 86//146
f 3//147 12//147 14//147
f 13//148 3//148 14//148
f 6//149 3//149 13//149
f 11//150 39//150 38//150
f 11//151 12//151 3//151
f 64//152 66//152 71//152
f 64//153 71//153 72//153
f 70//154 64//154 72//154
f 4//155 11//155 3//155
f 35//156 37//156 64//156
f 35//157 64//157 70//157
f 61//158 35//158 32//158
f 61//159 39//159 35//159
f 35//160 39//160 37//160
f 37//161 39//161 4//161
f 4//162 39//162 11//162
f 57//163 56//163 58//163
f 59//164 57//164 58//164
f 60//165 57//165 59//165
f 17//166 62//166 15//166
f 17//167 56//167 57//167
f 50//168 49//168 48//168
f 50//169 48//169 47//169
f 41//170 50//170 47//170
f 18//171 17//171 57//171
f 22//172 20//172 50//172
f 22//173 50//173 41//173
f 40//174 22//174 24//174
f 40//175 62//175 17//175
f 40//176 17//176 18//176
f 40//177 18//177 20//177
f 40//178 20//178 22//178
f 39//179 61//179 62//179
f 39//180 62//180 40//180
